<?xml version="1.0" encoding="UTF-8"?><svg id="Layer_1" xmlns="http://www.w3.org/2000/svg" viewBox="0 0 66.39 67.63"><defs><style>.cls-1{fill:#fff;}</style></defs><rect class="cls-1" x="20.25" y="14.09" width="30.88" height="1"/><rect class="cls-1" x="20.25" y="23.71" width="30.88" height="1"/><rect class="cls-1" x="20.25" y="33.34" width="30.88" height="1"/><rect class="cls-1" x="20.25" y="42.96" width="30.88" height="1"/><rect class="cls-1" x="20.25" y="52.59" width="30.88" height="1"/><path class="cls-1" d="M15.34,15.59h-.7c-.55,0-1-.45-1-1s.45-1,1-1h.7c.55,0,1,.45,1,1s-.45,1-1,1Z"/><path class="cls-1" d="M15.34,25.21h-.7c-.55,0-1-.45-1-1s.45-1,1-1h.7c.55,0,1,.45,1,1s-.45,1-1,1Z"/><path class="cls-1" d="M15.34,34.84h-.7c-.55,0-1-.45-1-1s.45-1,1-1h.7c.55,0,1,.45,1,1s-.45,1-1,1Z"/><path class="cls-1" d="M15.34,44.46h-.7c-.55,0-1-.45-1-1s.45-1,1-1h.7c.55,0,1,.45,1,1s-.45,1-1,1Z"/><path class="cls-1" d="M15.34,54.09h-.7c-.55,0-1-.45-1-1s.45-1,1-1h.7c.55,0,1,.45,1,1s-.45,1-1,1Z"/></svg>