<?xml version="1.0" encoding="UTF-8"?><svg id="Layer_1" xmlns="http://www.w3.org/2000/svg" viewBox="0 0 66.39 67.63"><defs><style>.cls-1{fill:#fff;}</style></defs><circle class="cls-1" cx="33.2" cy="34.72" r="11.24"/><path class="cls-1" d="M33.19,46.46c-1.92,0-3.82-.48-5.55-1.41-2.76-1.49-4.78-3.96-5.67-6.96-.9-3-.58-6.18.91-8.94s3.96-4.78,6.96-5.67c3.01-.9,6.18-.58,8.94.91,2.76,1.49,4.78,3.96,5.67,6.96.9,3,.58,6.18-.91,8.94-1.49,2.76-3.96,4.78-6.96,5.67-1.11.33-2.25.5-3.38.5ZM33.22,23.97c-1.04,0-2.08.15-3.09.46-2.75.82-5.01,2.67-6.37,5.19-1.36,2.52-1.66,5.43-.83,8.18.82,2.75,2.67,5.01,5.19,6.37,2.52,1.36,5.43,1.66,8.17.83,2.75-.82,5.01-2.67,6.37-5.19,1.36-2.52,1.66-5.43.83-8.17-.82-2.75-2.67-5.01-5.19-6.37-1.59-.86-3.33-1.29-5.08-1.29Z"/><path class="cls-1" d="M30.07,24.77c-.22,0-.41-.14-.48-.36l-2.46-8.23c-.08-.26.07-.54.33-.62.27-.08.54.07.62.33l2.46,8.23c.08.26-.07.54-.33.62-.05.01-.1.02-.14.02Z"/><path class="cls-1" d="M25.27,27.73c-.12,0-.25-.04-.34-.14l-6.25-5.9c-.2-.19-.21-.51-.02-.71.19-.2.5-.21.71-.02l6.25,5.9c.2.19.21.51.02.71-.1.1-.23.16-.36.16Z"/><path class="cls-1" d="M22.59,32.7s-.08,0-.12-.01l-8.36-1.98c-.27-.06-.43-.33-.37-.6.06-.27.33-.44.6-.37l8.36,1.98c.27.06.43.33.37.6-.05.23-.26.38-.49.38Z"/><path class="cls-1" d="M14.52,40.81c-.22,0-.41-.14-.48-.36-.08-.26.07-.54.33-.62l8.23-2.47c.27-.08.54.07.62.33.08.26-.07.54-.33.62l-8.23,2.47s-.1.02-.14.02Z"/><path class="cls-1" d="M19.82,49.4c-.12,0-.25-.04-.34-.14-.2-.19-.21-.51-.02-.71l5.9-6.25c.19-.2.5-.21.71-.02.2.19.21.51.02.71l-5.9,6.25c-.1.1-.23.16-.36.16Z"/><path class="cls-1" d="M28.71,54.19s-.08,0-.12-.01c-.27-.06-.43-.33-.37-.6l1.98-8.36c.06-.27.33-.44.6-.37.27.06.43.33.37.6l-1.98,8.36c-.05.23-.26.38-.49.38Z"/><path class="cls-1" d="M38.8,53.9c-.22,0-.41-.14-.48-.36l-2.47-8.23c-.08-.26.07-.54.33-.62.27-.08.54.07.62.33l2.47,8.23c.08.26-.07.54-.33.62-.05.01-.1.02-.14.02Z"/><path class="cls-1" d="M47.39,48.6c-.12,0-.25-.04-.34-.14l-6.25-5.9c-.2-.19-.21-.51-.02-.71.19-.2.51-.21.71-.02l6.25,5.89c.2.19.21.51.02.71-.1.1-.23.16-.36.16Z"/><path class="cls-1" d="M52.18,39.71s-.08,0-.12-.01l-8.36-1.98c-.27-.06-.43-.33-.37-.6.06-.27.33-.44.6-.37l8.36,1.98c.27.06.43.33.37.6-.05.23-.26.38-.49.38Z"/><path class="cls-1" d="M43.65,32.09c-.22,0-.41-.14-.48-.36-.08-.26.07-.54.33-.62l8.23-2.47c.27-.08.54.07.62.33.08.26-.07.54-.33.62l-8.23,2.47s-.1.02-.14.02Z"/><path class="cls-1" d="M40.69,27.28c-.12,0-.25-.04-.34-.14-.2-.19-.21-.51-.02-.71l5.9-6.25c.19-.2.51-.21.71-.02.2.19.21.51.02.71l-5.9,6.25c-.1.1-.23.16-.36.16Z"/><path class="cls-1" d="M35.72,24.6s-.08,0-.12-.01c-.27-.06-.43-.33-.37-.6l1.98-8.36c.06-.27.33-.44.6-.37.27.06.43.33.37.6l-1.98,8.36c-.05.23-.26.38-.49.38Z"/></svg>