<?xml version="1.0" encoding="UTF-8"?><svg id="Layer_1" xmlns="http://www.w3.org/2000/svg" viewBox="0 0 66.39 67.63"><defs><style>.cls-1{fill:#fff;}</style></defs><path class="cls-1" d="M54.84,49.36c-6.99-1.47-14.07-.41-21.64,3.23-6.3-2.69-13.34-3.75-21.52-3.25-.34.02-.6.31-.58.65.02.34.34.6.65.58,8.1-.51,15.04.56,21.22,3.26.08.03.16.05.25.05.09,0,.18-.02.27-.06,7.41-3.62,14.32-4.69,21.1-3.26.33.07.66-.14.73-.47.07-.33-.14-.66-.47-.73Z"/><path class="cls-1" d="M32.59,20.91c-5.95-3.25-12.17-4.67-20.07-4.56h-.59s-.87,28.56-.87,28.56l.67-.04c7.93-.5,14.76.53,20.85,3.11v-27.07Z"/><path class="cls-1" d="M54.48,16.36h-.59c-7.87-.13-14.11,1.3-20.07,4.55v27.07c6.09-2.58,12.91-3.61,20.85-3.11l.67.04-.87-28.55Z"/></svg>