<?xml version="1.0" encoding="UTF-8"?><svg id="Layer_1" xmlns="http://www.w3.org/2000/svg" viewBox="0 0 97.43 96.47"><defs><style>.cls-1{fill:#fff;}.cls-2{fill:#9f9f9f;}</style></defs><rect class="cls-1" x="22.1" y="13.97" width="51.05" height="66.53"/><path class="cls-2" d="M29.49,41.61v-.51c0-.6.41-.9,1.2-.9h.68v-13.42h-.68c-.8,0-1.2-.3-1.2-.9v-.51c0-.6.41-.9,1.2-.9h5.49c2.78,0,4.68,2.08,4.68,5.39s-1.9,5.31-4.68,5.31h-2.41v5.04h1.41c.8,0,1.2.3,1.2.9v.51c0,.6-.41.9-1.2.9h-4.5c-.8,0-1.2-.3-1.2-.9ZM35.73,32.84c1.71,0,2.59-.56,2.59-2.14v-1.56c0-1.75-.87-2.36-2.59-2.36h-1.96v6.06h1.96Z"/><path class="cls-2" d="M44.68,32.74h5.72c.8,0,1.23.53,1.23,1.23s-.44,1.25-1.23,1.25h-5.72c-.8,0-1.23-.53-1.23-1.25s.44-1.23,1.23-1.23Z"/><path class="cls-2" d="M54.98,24.46h4.63c3.38,0,5.48,1.9,5.48,4.94,0,1.68-.8,3.19-2.44,3.76,1.82.53,2.72,2.38,2.72,4.33,0,3.34-2.27,5.02-5.34,5.02h-5.12c-.74,0-1.02-.39-1.02-1.22,0-.74.32-1.1,1.13-1.1h.92v-13.42h-.96c-.83,0-1.1-.36-1.1-1.13s.27-1.19,1.1-1.19ZM60.58,32.21c1.31,0,2.03-.83,2.03-2.32v-.93c0-1.4-.78-2.18-2.18-2.18h-2.08v5.43h2.23ZM60.25,40.2c1.76,0,2.63-.78,2.63-2.38v-.9c0-1.7-.86-2.54-2.57-2.54h-1.96v5.82h1.9Z"/><path class="cls-2" d="M30.26,54.76c0-1.25,1.19-3.78,4.83-3.78,2.92,0,4.83,1.84,4.83,4.77s-1.56,4.5-3.82,5.94c-2.48,1.57-3.24,2.93-3.14,5.01h6.08c.96,0,1.43.5,1.43,1.28s-.47,1.28-1.43,1.28h-6.92c-.53,0-1.9-.24-1.9-2.5,0-2.83,1.47-5.1,4.48-6.94,1.79-1.08,2.81-2.29,2.81-4.08s-1.04-2.51-2.47-2.51c-.8,0-1.83.5-2.09,1.9-.18.96-.93,1.31-1.69,1.17-.68-.12-1.01-.6-1.01-1.55Z"/><path class="cls-2" d="M44.51,66.43c0-1.56.92-3.04,2.9-3.04s2.95,1.49,2.95,3.04c0,1.84-1.19,3.05-2.95,3.05s-2.9-1.22-2.9-3.05Z"/><path class="cls-2" d="M54.27,59.95c0-6.03,1.82-8.89,5.42-8.89s5.42,2.86,5.42,8.89c0,6.33-1.82,9.49-5.42,9.49s-5.42-3.16-5.42-9.49ZM57.18,64.28l3.79-10.56c-.36-.29-.8-.42-1.28-.42-1.91,0-2.9,2.14-2.9,6.63,0,1.78.14,3.22.39,4.35ZM62.59,59.93c0-1.38-.09-2.54-.29-3.49l-3.73,10.41c.33.23.69.35,1.11.35,1.91,0,2.9-2.42,2.9-7.27Z"/></svg>