<?xml version="1.0" encoding="UTF-8"?><svg id="Layer_1" xmlns="http://www.w3.org/2000/svg" viewBox="0 0 97.43 96.47"><defs><style>.cls-1{fill:#fff;}.cls-2{fill:#9f9f9f;}</style></defs><rect class="cls-1" x="22.1" y="13.97" width="51.05" height="66.53"/><path class="cls-2" d="M31.16,21.19l.14,1.53c.02.29-.12.45-.4.45s-.42-.13-.43-.37l-.04-1.25c0-.12-.05-.16-.16-.16h-.45v4.38h.64c.26,0,.39.1.39.29v.17c0,.19-.13.29-.39.29h-2.05c-.26,0-.39-.1-.39-.29v-.17c0-.19.13-.29.39-.29h.63v-4.38h-.45c-.11,0-.15.04-.15.17l-.04,1.26c0,.24-.16.37-.43.37-.29,0-.45-.16-.42-.44l.13-1.55c.03-.37.18-.5.59-.5h2.3c.41,0,.55.12.59.49Z"/><path class="cls-2" d="M34.98,23.32v2.46h.09c.26,0,.39.1.39.29v.17c0,.19-.13.29-.39.29h-.98c-.26,0-.39-.1-.39-.29v-.17c0-.19.13-.29.39-.29h.12v-2.4c0-.4-.22-.63-.52-.63-.33,0-.75.46-.76.88v2.15h.1c.26,0,.39.1.39.29v.17c0,.19-.13.29-.39.29h-.98c-.26,0-.39-.1-.39-.29v-.17c0-.19.13-.29.39-.29h.11v-4.81h-.15c-.26,0-.39-.1-.39-.29v-.16c0-.19.13-.29.39-.29h.54c.26,0,.39.09.39.28v2.3c.2-.44.58-.74,1.03-.74.62,0,1.02.39,1.02,1.26Z"/><path class="cls-2" d="M36.77,24.66v.18c0,.62.36,1.09.94,1.09.46,0,.68-.22.95-.47.27-.25.45-.28.63-.09.19.21.15.4-.1.64-.38.37-.93.61-1.49.61-1.09,0-1.78-.86-1.78-2.24s.67-2.3,1.75-2.3,1.7.87,1.7,2.2c0,.26-.12.38-.31.38h-2.3ZM38.54,23.91v-.13c0-.62-.29-1.02-.86-1.02-.56,0-.92.41-.92,1.05v.1h1.78Z"/><path class="cls-2" d="M47.62,21.25v1.31c0,.21-.11.3-.37.3-.28,0-.4-.09-.4-.3v-1.11s-1.45,0-1.45,0v1.61h.5v-.52c0-.16.1-.24.32-.24s.32.07.32.24v1.79c0,.17-.1.24-.32.24s-.32-.07-.32-.24v-.54h-.5v1.99h.38c.26,0,.39.1.39.29v.17c0,.19-.13.29-.39.29h-1.31c-.26,0-.39-.1-.39-.29v-.17c0-.19.13-.29.39-.29h.15v-4.33h-.24c-.16,0-.29-.1-.29-.29v-.17c0-.19.13-.29.29-.29h2.75c.33,0,.5.18.5.55Z"/><path class="cls-2" d="M49.4,22.91h-.55c-.26,0-.39-.1-.39-.29v-.17c0-.19.13-.29.39-.29h.79c.56,0,.81.28.81.91v2.71h.79c.26,0,.39.1.39.29v.17c0,.19-.13.29-.39.29h-2.39c-.26,0-.39-.1-.39-.29v-.17c0-.19.13-.29.39-.29h.82v-2.6c0-.19-.08-.27-.28-.27ZM49.85,20.17c.41,0,.61.2.61.62s-.2.63-.61.63-.62-.21-.62-.63.2-.62.62-.62Z"/><path class="cls-2" d="M53.86,22.44v.52c.22-.48.63-.87,1.27-.87h.21c.38,0,.57.18.57.65v.5c0,.21-.17.34-.43.34s-.43-.13-.43-.34v-.48h-.14c-.65,0-1.06.5-1.06,1.41v1.61h.74c.26,0,.39.1.39.29v.17c0,.19-.13.29-.39.29h-1.86c-.26,0-.39-.1-.39-.29v-.17c0-.19.13-.29.39-.29h.34v-2.87h-.35c-.26,0-.39-.1-.39-.29v-.17c0-.19.13-.29.39-.29h.74c.26,0,.39.09.39.28Z"/><path class="cls-2" d="M56.74,25.63c-.1-.34-.03-.65.26-.71.28-.07.64.07.64.45,0,.4.32.65.74.65.53,0,.83-.3.83-.63s-.27-.53-.81-.67l-.71-.17c-.63-.16-.92-.64-.92-1.21,0-.74.6-1.25,1.51-1.25.76,0,1.32.33,1.45.85.11.46-.04.74-.39.74-.33,0-.52-.19-.5-.5.01-.32-.18-.5-.63-.5s-.73.24-.73.58c0,.31.19.49.62.58l.69.16c.84.19,1.15.67,1.15,1.27,0,.79-.62,1.31-1.58,1.31-.79,0-1.44-.34-1.62-.96Z"/><path class="cls-2" d="M61.81,20.7c.25,0,.38.09.38.3v1.15h1.5c.22,0,.32.13.32.37s-.1.38-.32.38h-1.5v2.48c0,.25.13.39.36.39h1.17c.22,0,.3.16.3.34,0,.25-.08.41-.29.41h-.86c-.98,0-1.46-.48-1.46-1.45v-2.17h-.48c-.22,0-.32-.14-.32-.38s.1-.37.32-.37h.48v-1.15c0-.21.14-.3.39-.3Z"/><path class="cls-2" d="M29.1,31.34l1.19,4.1v-3.68h-.19c-.26,0-.39-.1-.39-.29v-.17c0-.19.13-.29.39-.29h.93c.26,0,.39.1.39.29v.17c0,.19-.13.29-.39.29h-.06v4.64c0,.28-.19.44-.52.44h-.16c-.19-.01-.35-.14-.41-.33l-1.2-4.26v3.84h.2c.26,0,.39.1.39.29v.17c0,.19-.13.29-.39.29h-1.02c-.26,0-.39-.1-.39-.29v-.17c0-.19.13-.29.39-.29h.14v-4.33h-.13c-.26,0-.39-.1-.39-.29v-.17c0-.19.13-.29.39-.29h.81c.2,0,.36.13.42.33Z"/><path class="cls-2" d="M31.89,34.62c0-1.42.66-2.21,1.67-2.21s1.68.79,1.68,2.21-.66,2.27-1.68,2.27-1.67-.81-1.67-2.27ZM34.42,34.91v-.54c0-.84-.29-1.26-.86-1.26s-.85.41-.85,1.24v.56c0,.85.28,1.27.85,1.27s.86-.42.86-1.27Z"/><path class="cls-2" d="M37.93,33.11c-.2,0-.56.09-.88.65v2.32h.07c.26,0,.39.1.39.29v.17c0,.19-.13.29-.39.29h-.91c-.26,0-.39-.1-.39-.29v-.17c0-.19.13-.29.39-.29h.11v-2.87h-.19c-.26,0-.39-.1-.39-.29v-.17c0-.19.13-.29.39-.29h.55c.24,0,.37.16.37.35v.44c.37-.67.77-.88,1.11-.88.65,0,.91.47.91,1.14v2.57h.1c.26,0,.39.1.39.29v.17c0,.19-.13.29-.39.29h-.91c-.26,0-.39-.1-.39-.29v-.17c0-.19.13-.29.39-.29h.06v-2.42c0-.44-.19-.55-.39-.55Z"/><path class="cls-2" d="M40.88,33.68h1.84c.26,0,.4.17.4.4s-.14.4-.4.4h-1.84c-.26,0-.4-.17-.4-.4s.14-.4.4-.4Z"/><path class="cls-2" d="M44.57,31.46v-.17c0-.19.13-.29.39-.29h1.14c.13,0,.24.09.27.21l1.1,4.86h.05c.26,0,.39.1.39.29v.17c0,.19-.13.29-.39.29h-.85c-.26,0-.39-.1-.39-.29v-.17c0-.19.13-.29.38-.29l-.19-.89h-1.27l-.19.89h.17c.26,0,.39.1.39.29v.17c0,.19-.13.29-.39.29h-.85c-.26,0-.39-.1-.39-.29v-.17c0-.19.13-.29.39-.29h.03l.97-4.33h-.36c-.26,0-.39-.1-.39-.29ZM46.31,34.44l-.47-2.25-.48,2.25h.95Z"/><path class="cls-2" d="M48.64,36.54v-.17c0-.19.13-.29.39-.29h.63v-4.33h-.63c-.26,0-.39-.1-.39-.29v-.17c0-.19.13-.29.39-.29h2.05c.26,0,.39.1.39.29v.17c0,.19-.13.29-.39.29h-.64v4.33h.64c.26,0,.39.1.39.29v.17c0,.19-.13.29-.39.29h-2.05c-.26,0-.39-.1-.39-.29Z"/><path class="cls-2" d="M30.86,47.15c-.28,0-.4-.09-.4-.3v-.22c-.18.33-.47.59-.93.59-1.12,0-1.92-1.16-1.92-3.02,0-1.73.79-2.96,2.1-2.96.88,0,1.43.55,1.43,1.44,0,.49-.21.77-.56.77-.48,0-.64-.35-.53-.9.08-.4-.25-.6-.54-.6-.67,0-1.1.76-1.1,1.89v.7c0,1.18.47,1.93,1.21,1.93.41,0,.68-.12.84-.43v-1.16s0-.04,0-.04h-.95c-.16,0-.29-.1-.29-.29v-.17c0-.19.13-.29.29-.29h1.32c.26,0,.4.17.4.4v2.35c0,.21-.11.3-.37.3Z"/><path class="cls-2" d="M32.64,45.27v.18c0,.62.36,1.09.94,1.09.46,0,.68-.22.95-.47.27-.25.45-.28.63-.09.19.21.15.4-.1.64-.38.37-.93.61-1.48.61-1.09,0-1.78-.86-1.78-2.24s.67-2.3,1.75-2.3,1.7.87,1.7,2.2c0,.26-.12.38-.31.38h-2.29ZM34.42,44.52v-.13c0-.62-.29-1.02-.86-1.02-.56,0-.92.41-.92,1.05v.1h1.78Z"/><path class="cls-2" d="M37.93,43.42c-.2,0-.56.09-.88.65v2.32h.07c.26,0,.39.1.39.29v.17c0,.19-.13.29-.39.29h-.91c-.26,0-.39-.1-.39-.29v-.17c0-.19.13-.29.39-.29h.11v-2.87h-.19c-.26,0-.39-.1-.39-.29v-.16c0-.19.13-.29.39-.29h.55c.24,0,.37.16.37.35v.44c.37-.67.77-.88,1.11-.88.65,0,.91.47.91,1.14v2.57h.1c.26,0,.39.1.39.29v.17c0,.19-.13.29-.39.29h-.91c-.26,0-.39-.1-.39-.29v-.17c0-.19.13-.29.39-.29h.06v-2.42c0-.44-.19-.55-.39-.55Z"/><path class="cls-2" d="M40.89,45.27v.18c0,.62.36,1.09.94,1.09.46,0,.68-.22.95-.47.27-.25.45-.28.63-.09.19.21.15.4-.1.64-.38.37-.93.61-1.49.61-1.09,0-1.78-.86-1.78-2.24s.67-2.3,1.75-2.3,1.7.87,1.7,2.2c0,.26-.12.38-.31.38h-2.3ZM42.66,44.52v-.13c0-.62-.29-1.02-.86-1.02-.56,0-.92.41-.92,1.05v.1h1.78Z"/><path class="cls-2" d="M45.62,43.05v.52c.22-.48.63-.87,1.27-.87h.21c.38,0,.57.18.57.65v.5c0,.21-.17.34-.43.34s-.43-.13-.43-.34v-.48h-.14c-.65,0-1.06.5-1.06,1.41v1.61h.74c.26,0,.39.1.39.29v.17c0,.19-.13.29-.39.29h-1.86c-.26,0-.39-.1-.39-.29v-.17c0-.19.13-.29.39-.29h.34v-2.87h-.35c-.26,0-.39-.1-.39-.29v-.16c0-.19.13-.29.39-.29h.74c.26,0,.39.09.39.28Z"/><path class="cls-2" d="M50.58,46.67v-.15c-.21.46-.6.69-1.04.69-.73,0-1.24-.5-1.24-1.3,0-.86.62-1.31,1.51-1.31h.77v-.57c0-.49-.19-.73-.59-.73-.36,0-.7.15-.57.54.1.3-.21.47-.46.44-.25-.03-.46-.21-.46-.56,0-.58.66-1.02,1.46-1.02.93,0,1.38.47,1.38,1.42v2.26h.18c.26,0,.39.1.39.29v.17c0,.19-.13.29-.39.29h-.53c-.27,0-.41-.16-.41-.47ZM49.71,46.55c.38,0,.79-.28.87-.57v-.82h-.77c-.48,0-.72.27-.72.63v.15c0,.33.26.62.63.62Z"/><path class="cls-2" d="M53.57,41.31c.25,0,.38.09.38.3v1.15h1.5c.22,0,.32.13.32.37s-.1.38-.32.38h-1.5v2.48c0,.25.13.39.36.39h1.17c.22,0,.3.16.3.34,0,.25-.08.41-.29.41h-.86c-.97,0-1.46-.48-1.46-1.45v-2.17h-.48c-.22,0-.32-.14-.32-.38s.1-.37.32-.37h.48v-1.15c0-.21.14-.3.39-.3Z"/><path class="cls-2" d="M57.64,43.52h-.55c-.26,0-.39-.1-.39-.29v-.16c0-.19.13-.29.39-.29h.79c.56,0,.81.28.81.91v2.71h.79c.26,0,.39.1.39.29v.17c0,.19-.13.29-.39.29h-2.39c-.26,0-.39-.1-.39-.29v-.17c0-.19.13-.29.39-.29h.83v-2.6c0-.19-.08-.27-.28-.27ZM58.09,40.78c.41,0,.61.2.61.62s-.2.63-.61.63-.62-.21-.62-.63.2-.62.62-.62Z"/><path class="cls-2" d="M62.55,47.14h-.3c-.17,0-.32-.11-.36-.28l-.87-3.34h-.08c-.26,0-.39-.1-.39-.29v-.16c0-.19.13-.29.39-.29h.88c.26,0,.39.1.39.29v.16c0,.19-.13.29-.39.29h-.06l.66,2.63.66-2.63h-.08c-.26,0-.39-.1-.39-.29v-.16c0-.19.13-.29.39-.29h.88c.26,0,.39.1.39.29v.16c0,.19-.13.29-.39.29h-.15l-.83,3.34c-.04.16-.18.28-.36.28Z"/><path class="cls-2" d="M65.62,45.27v.18c0,.62.36,1.09.94,1.09.46,0,.68-.22.95-.47.27-.25.45-.28.63-.09.19.21.15.4-.1.64-.38.37-.93.61-1.48.61-1.09,0-1.78-.86-1.78-2.24s.67-2.3,1.75-2.3,1.7.87,1.7,2.2c0,.26-.12.38-.31.38h-2.29ZM67.39,44.52v-.13c0-.62-.29-1.02-.86-1.02-.56,0-.92.41-.92,1.05v.1h1.78Z"/><path class="cls-2" d="M28.08,52.07v-.17c0-.19.13-.29.39-.29h1.14c.13,0,.24.09.27.21l1.1,4.86h.05c.26,0,.39.1.39.29v.17c0,.19-.13.29-.39.29h-.85c-.26,0-.39-.1-.39-.29v-.17c0-.19.13-.29.38-.29l-.19-.89h-1.27l-.19.89h.17c.26,0,.39.1.39.29v.17c0,.19-.13.29-.39.29h-.85c-.26,0-.39-.1-.39-.29v-.17c0-.19.13-.29.39-.29h.03l.97-4.33h-.36c-.26,0-.39-.1-.39-.29ZM29.82,55.05l-.47-2.25-.48,2.25h.95Z"/><path class="cls-2" d="M33.25,53.36v.52c.22-.48.63-.87,1.27-.87h.21c.38,0,.57.18.57.65v.5c0,.21-.17.34-.43.34s-.43-.13-.43-.34v-.48h-.14c-.65,0-1.06.5-1.06,1.41v1.61h.74c.26,0,.39.1.39.29v.17c0,.19-.13.29-.39.29h-1.86c-.26,0-.39-.1-.39-.29v-.17c0-.19.13-.29.39-.29h.34v-2.87h-.35c-.26,0-.39-.1-.39-.29v-.16c0-.19.13-.29.39-.29h.74c.26,0,.39.09.39.28Z"/><path class="cls-2" d="M37.09,51.62c.25,0,.38.09.38.3v1.15h1.5c.22,0,.32.13.32.37s-.1.38-.32.38h-1.5v2.48c0,.25.13.39.36.39h1.17c.22,0,.3.16.3.34,0,.25-.08.41-.29.41h-.86c-.97,0-1.46-.48-1.46-1.45v-2.17h-.48c-.22,0-.32-.14-.32-.38s.1-.37.32-.37h.48v-1.15c0-.21.14-.3.39-.3Z"/><path class="cls-2" d="M45.6,51.93l.34,2.53.37-2.52c.03-.19.23-.32.42-.32h.84c.23,0,.3.15.3.37s-.07.37-.3.37h-.17v4.33h.11c.18,0,.35.15.35.37s-.17.37-.35.37h-.92c-.18,0-.35-.14-.35-.37s.17-.37.35-.37h.12v-3.98l-.51,3.06c-.02.13-.14.22-.28.22h-.06c-.14,0-.25-.09-.28-.23l-.48-2.93v3.85h.1c.18,0,.35.15.35.37s-.17.37-.35.37h-.92c-.18,0-.35-.15-.35-.37s.17-.37.35-.37h.13v-4.33h-.12c-.23,0-.35-.15-.35-.37s.12-.37.35-.37h.83c.21,0,.44.12.46.31Z"/><path class="cls-2" d="M48.37,55.23c0-1.42.66-2.21,1.67-2.21s1.68.79,1.68,2.21-.66,2.27-1.68,2.27-1.67-.82-1.67-2.27ZM50.91,55.52v-.54c0-.84-.29-1.26-.86-1.26s-.85.41-.85,1.24v.56c0,.85.28,1.27.85,1.27s.86-.42.86-1.27Z"/><path class="cls-2" d="M54.19,51.59v-.17c0-.19.13-.29.39-.29h.59c.26,0,.39.09.39.28v5.28h.11c.26,0,.39.1.39.29v.17c0,.19-.13.29-.39.29h-.5c-.26,0-.38-.1-.38-.29v-.32c-.3.46-.65.67-1.11.67-.84,0-1.34-.79-1.34-2.28,0-1.4.54-2.22,1.41-2.22.38,0,.74.19,1.04.67v-1.8h-.2c-.26,0-.39-.1-.39-.29ZM54.78,56.17v-1.85c0-.29-.38-.58-.92-.58-.46,0-.71.41-.71,1.03v.9c0,.66.26,1.08.72,1.08.5,0,.91-.26.91-.58Z"/><path class="cls-2" d="M57.37,55.57v.18c0,.62.36,1.09.94,1.09.46,0,.68-.22.95-.47.27-.25.45-.28.63-.09.19.21.15.4-.1.64-.38.37-.93.61-1.49.61-1.09,0-1.78-.86-1.78-2.24s.67-2.3,1.75-2.3,1.7.87,1.7,2.2c0,.26-.12.38-.31.38h-2.3ZM59.15,54.83v-.13c0-.62-.29-1.02-.86-1.02-.56,0-.92.41-.92,1.05v.1h1.78Z"/><path class="cls-2" d="M60.73,51.59v-.17c0-.19.13-.29.39-.29h1.29c.26,0,.39.09.39.28v5.28h.86c.26,0,.39.1.39.29v.17c0,.19-.13.29-.39.29h-2.52c-.26,0-.39-.1-.39-.29v-.17c0-.19.13-.29.39-.29h.88v-4.81h-.9c-.26,0-.39-.1-.39-.29Z"/></svg>