<?xml version="1.0" encoding="UTF-8"?><svg id="Layer_1" xmlns="http://www.w3.org/2000/svg" viewBox="0 0 97.43 96.47"><defs><style>.cls-1{fill:#fff;}.cls-2{fill:#9f9f9f;}</style></defs><rect class="cls-1" x="22.1" y="13.97" width="51.05" height="66.53"/><path class="cls-2" d="M27.55,26.23v-.17c0-.19.13-.29.39-.29h.22v-4.33h-.22c-.26,0-.39-.1-.39-.29v-.17c0-.19.13-.29.39-.29h1.77c.9,0,1.51.67,1.51,1.74s-.61,1.71-1.51,1.71h-.78v1.63h.46c.26,0,.39.1.39.29v.17c0,.19-.13.29-.39.29h-1.45c-.26,0-.39-.1-.39-.29ZM29.56,23.41c.55,0,.83-.18.83-.69v-.5c0-.56-.28-.76-.83-.76h-.63v1.96h.63Z"/><path class="cls-2" d="M33.25,22.44v.52c.22-.48.63-.87,1.27-.87h.21c.38,0,.57.18.57.65v.5c0,.21-.17.34-.43.34s-.43-.13-.43-.34v-.48h-.14c-.65,0-1.06.5-1.06,1.41v1.61h.74c.26,0,.39.1.39.29v.17c0,.19-.13.29-.39.29h-1.86c-.26,0-.39-.1-.39-.29v-.17c0-.19.13-.29.39-.29h.34v-2.87h-.35c-.26,0-.39-.1-.39-.29v-.17c0-.19.13-.29.39-.29h.74c.26,0,.39.09.39.28Z"/><path class="cls-2" d="M36.01,24.31c0-1.42.66-2.21,1.67-2.21s1.68.79,1.68,2.21-.66,2.27-1.68,2.27-1.67-.81-1.67-2.27ZM38.54,24.61v-.54c0-.84-.29-1.26-.86-1.26s-.85.41-.85,1.24v.56c0,.85.28,1.27.85,1.27s.86-.42.86-1.27Z"/><path class="cls-2" d="M41.47,26.23v-3.08c0-.22-.07-.33-.23-.33s-.37.2-.37.61v2.35h.03c.16,0,.29.1.29.29v.17c0,.19-.13.29-.29.29h-.75c-.16,0-.29-.1-.29-.29v-.17c0-.19.13-.29.29-.29h.02v-2.87h-.02c-.16,0-.29-.1-.29-.29v-.17c0-.19.13-.29.29-.29h.44c.16,0,.29.1.29.29v.33c.12-.32.38-.69.73-.69.33,0,.52.22.54.61.15-.32.4-.61.71-.61.37,0,.58.32.58.9v2.79h.03c.16,0,.29.1.29.29v.17c0,.19-.13.29-.29.29h-.44c-.16,0-.29-.1-.29-.29v-3.08c0-.23-.08-.33-.23-.33-.16,0-.33.17-.36.5v2.46h.03c.16,0,.29.1.29.29v.17c0,.19-.13.29-.29.29h-.41c-.16,0-.29-.1-.29-.29Z"/><path class="cls-2" d="M44.38,28.47c-.26,0-.39-.1-.39-.29v-.17c0-.19.13-.29.39-.29h.1v-4.81h-.1c-.26,0-.39-.1-.39-.29v-.17c0-.19.13-.29.39-.29h.49c.26,0,.39.09.39.28v.32c.31-.48.66-.67,1.04-.67.87,0,1.41.77,1.41,2.22s-.5,2.28-1.39,2.28c-.42,0-.77-.21-1.06-.66v1.8h.59c.26,0,.39.1.39.29v.17c0,.19-.13.29-.39.29h-1.47ZM46.89,24.76v-.9c0-.62-.26-1.03-.71-1.03-.53,0-.92.29-.92.58v1.85c0,.33.42.58.91.58.46,0,.72-.42.72-1.08Z"/><path class="cls-2" d="M49.45,20.7c.25,0,.38.09.38.3v1.15h1.5c.22,0,.32.13.32.37s-.1.38-.32.38h-1.5v2.48c0,.25.13.39.36.39h1.17c.22,0,.3.16.3.34,0,.25-.08.41-.29.41h-.86c-.97,0-1.46-.48-1.46-1.45v-2.17h-.48c-.22,0-.31-.14-.31-.38s.1-.37.31-.37h.48v-1.15c0-.21.14-.3.39-.3Z"/><path class="cls-2" d="M53.25,23.37h1.84c.26,0,.4.17.4.4s-.14.4-.4.4h-1.84c-.26,0-.4-.17-.4-.4s.14-.4.4-.4Z"/><path class="cls-2" d="M27.91,31.01h1.5c1.09,0,1.77.61,1.77,1.59,0,.54-.26,1.03-.79,1.21.59.17.88.77.88,1.4,0,1.08-.73,1.62-1.72,1.62h-1.65c-.24,0-.33-.13-.33-.39,0-.24.1-.35.36-.35h.3v-4.33h-.31c-.27,0-.35-.12-.35-.36s.09-.38.35-.38ZM29.72,33.51c.42,0,.65-.27.65-.75v-.3c0-.45-.25-.7-.7-.7h-.67v1.75h.72ZM29.61,36.08c.57,0,.85-.25.85-.77v-.29c0-.55-.28-.82-.83-.82h-.63v1.88h.61Z"/><path class="cls-2" d="M33.25,32.75v.52c.22-.48.63-.87,1.27-.87h.21c.38,0,.57.18.57.65v.5c0,.21-.17.34-.43.34s-.43-.13-.43-.34v-.48h-.14c-.65,0-1.06.5-1.06,1.41v1.61h.74c.26,0,.39.1.39.29v.17c0,.19-.13.29-.39.29h-1.86c-.26,0-.39-.1-.39-.29v-.17c0-.19.13-.29.39-.29h.34v-2.87h-.35c-.26,0-.39-.1-.39-.29v-.17c0-.19.13-.29.39-.29h.74c.26,0,.39.09.39.28Z"/><path class="cls-2" d="M36.29,35.6v-2.39h-.12c-.26,0-.39-.1-.39-.29v-.17c0-.19.13-.29.39-.29h.51c.26,0,.38.1.38.29v2.84c0,.4.22.63.52.63.39,0,.62-.22.68-.49v-2.53h-.17c-.26,0-.39-.1-.39-.29v-.17c0-.19.13-.29.39-.29h.55c.26,0,.39.09.39.28v3.34h.15c.26,0,.39.1.39.29v.17c0,.19-.13.29-.39.29h-.49c-.27,0-.43-.17-.43-.44v-.12c-.19.42-.51.64-.91.64-.66,0-1.07-.5-1.07-1.31Z"/><path class="cls-2" d="M40.25,35.93c-.1-.34-.03-.65.26-.71.28-.07.64.07.64.45,0,.4.32.65.74.65.53,0,.83-.3.83-.63s-.27-.53-.81-.67l-.71-.17c-.63-.16-.92-.64-.92-1.21,0-.74.6-1.25,1.51-1.25.76,0,1.32.33,1.45.85.11.46-.04.74-.39.74-.33,0-.52-.19-.5-.5.01-.32-.18-.5-.63-.5s-.73.24-.73.58c0,.31.19.49.62.58l.69.16c.84.19,1.15.67,1.15,1.27,0,.79-.62,1.31-1.58,1.31-.79,0-1.44-.34-1.62-.96Z"/><path class="cls-2" d="M47.35,33.63v2.46h.09c.26,0,.39.1.39.29v.17c0,.19-.13.29-.39.29h-.99c-.26,0-.39-.1-.39-.29v-.17c0-.19.13-.29.39-.29h.12v-2.4c0-.4-.22-.63-.52-.63-.33,0-.75.46-.76.88v2.15h.1c.26,0,.39.1.39.29v.17c0,.19-.13.29-.39.29h-.99c-.26,0-.39-.1-.39-.29v-.17c0-.19.13-.29.39-.29h.11v-4.81h-.15c-.26,0-.39-.1-.39-.29v-.16c0-.19.13-.29.39-.29h.54c.26,0,.39.09.39.28v2.3c.2-.44.58-.74,1.03-.74.62,0,1.02.39,1.02,1.26Z"/><path class="cls-2" d="M52.52,32.15c0-.4.38-1.22,1.56-1.22.94,0,1.56.59,1.56,1.54s-.51,1.45-1.23,1.92c-.8.5-1.04.95-1.01,1.62h1.96c.31,0,.46.16.46.41s-.15.41-.46.41h-2.23c-.17,0-.61-.08-.61-.81,0-.91.48-1.64,1.45-2.24.58-.35.91-.74.91-1.31s-.33-.81-.79-.81c-.26,0-.59.16-.68.61-.06.31-.3.42-.54.38-.22-.04-.32-.19-.32-.5Z"/><path class="cls-2" d="M57.31,35.92c0-.5.3-.98.94-.98s.95.48.95.98c0,.59-.38.98-.95.98s-.94-.39-.94-.98Z"/><path class="cls-2" d="M60.66,33.83c0-1.95.59-2.87,1.75-2.87s1.75.92,1.75,2.87c0,2.04-.59,3.06-1.75,3.06s-1.75-1.02-1.75-3.06ZM61.59,35.22l1.22-3.41c-.12-.09-.26-.14-.41-.14-.62,0-.94.69-.94,2.14,0,.57.04,1.04.12,1.4ZM63.34,33.82c0-.45-.03-.82-.09-1.13l-1.2,3.36c.11.07.22.11.36.11.62,0,.94-.78.94-2.34Z"/></svg>